<svg width="1920" height="1080" viewBox="0 0 1920 1080" fill="none" xmlns="http://www.w3.org/2000/svg">
  <defs>
    <linearGradient id="sky" x1="960" y1="0" x2="960" y2="700" gradientUnits="userSpaceOnUse">
      <stop offset="0" stop-color="#FFF4D6"/>
      <stop offset="0.32" stop-color="#FFC49C"/>
      <stop offset="0.7" stop-color="#4C95C8"/>
      <stop offset="1" stop-color="#124A72"/>
    </linearGradient>
    <radialGradient id="sun" cx="0" cy="0" r="1" gradientUnits="userSpaceOnUse" gradientTransform="translate(978 260) rotate(90) scale(188 188)">
      <stop stop-color="#FFE7A7"/>
      <stop offset="0.5" stop-color="#FFA97E" stop-opacity="0.72"/>
      <stop offset="1" stop-color="#FFA97E" stop-opacity="0"/>
    </radialGradient>
    <linearGradient id="sea" x1="960" y1="620" x2="960" y2="1080" gradientUnits="userSpaceOnUse">
      <stop offset="0" stop-color="#2D7EB4" stop-opacity="0.15"/>
      <stop offset="1" stop-color="#0A3C5E" stop-opacity="0.95"/>
    </linearGradient>
    <linearGradient id="tower" x1="0" y1="0" x2="0" y2="1">
      <stop offset="0" stop-color="#F0F7FF"/>
      <stop offset="1" stop-color="#9DC3E4"/>
    </linearGradient>
    <linearGradient id="building" x1="0" y1="0" x2="0" y2="1">
      <stop offset="0" stop-color="#143A59"/>
      <stop offset="1" stop-color="#0A2236"/>
    </linearGradient>
    <filter id="soft" x="-20%" y="-20%" width="140%" height="140%">
      <feGaussianBlur stdDeviation="10"/>
    </filter>
  </defs>

  <rect width="1920" height="1080" fill="url(#sky)"/>
  <circle cx="978" cy="260" r="188" fill="url(#sun)"/>

  <ellipse cx="330" cy="200" rx="250" ry="90" fill="#FFFFFF" fill-opacity="0.22" filter="url(#soft)"/>
  <ellipse cx="1570" cy="230" rx="230" ry="80" fill="#FFFFFF" fill-opacity="0.18" filter="url(#soft)"/>

  <g opacity="0.95">
    <rect x="130" y="544" width="112" height="210" fill="url(#building)"/>
    <rect x="270" y="500" width="84" height="254" fill="url(#building)"/>
    <rect x="380" y="572" width="95" height="182" fill="url(#building)"/>
    <rect x="540" y="454" width="102" height="300" fill="url(#building)"/>
    <rect x="665" y="528" width="86" height="226" fill="url(#building)"/>
    <rect x="1200" y="516" width="94" height="238" fill="url(#building)"/>
    <rect x="1330" y="470" width="105" height="284" fill="url(#building)"/>
    <rect x="1460" y="548" width="88" height="206" fill="url(#building)"/>
    <rect x="1580" y="505" width="96" height="249" fill="url(#building)"/>
    <rect x="1710" y="565" width="110" height="189" fill="url(#building)"/>
  </g>

  <g transform="translate(960 0)">
    <rect x="-10" y="390" width="20" height="362" rx="6" fill="url(#tower)"/>
    <rect x="-2" y="266" width="4" height="124" rx="2" fill="#DAEEFF"/>
    <rect x="-66" y="472" width="132" height="26" rx="13" fill="#D3E9FD"/>
    <rect x="-58" y="481" width="116" height="8" rx="4" fill="#8FB8D8" opacity="0.8"/>
  </g>

  <rect x="0" y="620" width="1920" height="460" fill="url(#sea)"/>

  <g opacity="0.6" stroke="#C7EEFF" stroke-width="2">
    <path d="M160 735C260 719 375 719 490 735"/>
    <path d="M980 760C1094 744 1228 744 1368 760"/>
    <path d="M410 806C515 792 624 792 738 806"/>
    <path d="M1190 830C1288 817 1415 817 1548 830"/>
    <path d="M710 889C840 873 960 873 1086 889"/>
  </g>
</svg>
